<svg xmlns="http://www.w3.org/2000/svg" viewBox="0 0 800 500" role="img" aria-label="Dracania Archives app preview">
  <defs>
    <linearGradient id="bg" x1="0%" y1="0%" x2="100%" y2="100%">
      <stop offset="0%" stop-color="#064e3b"/>
      <stop offset="55%" stop-color="#09090b"/>
      <stop offset="100%" stop-color="#042f2e"/>
    </linearGradient>
    <linearGradient id="panel" x1="0%" y1="0%" x2="0%" y2="100%">
      <stop offset="0%" stop-color="#18181b"/>
      <stop offset="100%" stop-color="#09090b"/>
    </linearGradient>
  </defs>
  <rect width="800" height="500" fill="url(#bg)"/>
  <circle cx="700" cy="90" r="140" fill="#10b981" opacity="0.1"/>
  <circle cx="90" cy="420" r="170" fill="#14b8a6" opacity="0.07"/>
  <rect x="32" y="32" width="168" height="436" rx="12" fill="url(#panel)" stroke="#27272a"/>
  <rect x="48" y="52" width="72" height="8" rx="4" fill="#34d399" opacity="0.9"/>
  <rect x="48" y="68" width="120" height="6" rx="3" fill="#52525b"/>
  <rect x="48" y="108" width="136" height="28" rx="8" fill="#14532d" stroke="#166534"/>
  <rect x="48" y="148" width="136" height="24" rx="8" fill="#18181b" stroke="#3f3f46"/>
  <rect x="48" y="180" width="136" height="24" rx="8" fill="#18181b" stroke="#3f3f46"/>
  <rect x="48" y="212" width="136" height="24" rx="8" fill="#18181b" stroke="#3f3f46"/>
  <rect x="220" y="32" width="548" height="436" rx="12" fill="url(#panel)" stroke="#27272a"/>
  <rect x="240" y="52" width="220" height="32" rx="10" fill="#09090b" stroke="#3f3f46"/>
  <rect x="252" y="64" width="80" height="8" rx="4" fill="#52525b"/>
  <rect x="680" y="56" width="68" height="24" rx="8" fill="#059669"/>
  <rect x="692" y="66" width="44" height="4" rx="2" fill="#ecfdf5"/>
  <rect x="240" y="108" width="160" height="120" rx="10" fill="#18181b" stroke="#3f3f46"/>
  <rect x="252" y="120" width="48" height="48" rx="8" fill="#14532d"/>
  <rect x="252" y="180" width="100" height="8" rx="4" fill="#52525b"/>
  <rect x="252" y="196" width="72" height="6" rx="3" fill="#3f3f46"/>
  <rect x="414" y="108" width="160" height="120" rx="10" fill="#18181b" stroke="#3f3f46"/>
  <rect x="426" y="120" width="48" height="48" rx="8" fill="#134e4a"/>
  <rect x="426" y="180" width="100" height="8" rx="4" fill="#52525b"/>
  <rect x="426" y="196" width="72" height="6" rx="3" fill="#3f3f46"/>
  <rect x="588" y="108" width="160" height="120" rx="10" fill="#18181b" stroke="#3f3f46"/>
  <rect x="600" y="120" width="48" height="48" rx="8" fill="#164e63"/>
  <rect x="600" y="180" width="100" height="8" rx="4" fill="#52525b"/>
  <rect x="600" y="196" width="72" height="6" rx="3" fill="#3f3f46"/>
  <rect x="240" y="252" width="508" height="36" rx="8" fill="#14532d" opacity="0.35"/>
  <rect x="240" y="296" width="508" height="32" rx="8" fill="#18181b" stroke="#27272a"/>
  <rect x="240" y="336" width="508" height="32" rx="8" fill="#18181b" stroke="#27272a"/>
  <rect x="240" y="376" width="508" height="32" rx="8" fill="#18181b" stroke="#27272a"/>
  <rect x="252" y="308" width="120" height="8" rx="4" fill="#a1a1aa"/>
  <rect x="420" y="308" width="80" height="8" rx="4" fill="#52525b"/>
  <rect x="620" y="308" width="48" height="8" rx="4" fill="#34d399"/>
  <text x="240" y="468" fill="#71717a" font-family="ui-monospace, monospace" font-size="13">Item database - Search - Filters</text>
</svg>
