<svg xmlns="http://www.w3.org/2000/svg" viewBox="0 0 800 500" role="img" aria-label="CssHub workflow banner">
  <defs>
    <linearGradient id="bg" x1="0%" y1="0%" x2="100%" y2="100%">
      <stop offset="0%" stop-color="#09090b"/>
      <stop offset="55%" stop-color="#140325"/>
      <stop offset="100%" stop-color="#09090b"/>
    </linearGradient>
    <linearGradient id="panel" x1="0%" y1="0%" x2="0%" y2="100%">
      <stop offset="0%" stop-color="#18181b"/>
      <stop offset="100%" stop-color="#09090b"/>
    </linearGradient>
    <linearGradient id="accent" x1="0%" y1="0%" x2="100%" y2="0%">
      <stop offset="0%" stop-color="#e879f9"/>
      <stop offset="100%" stop-color="#a78bfa"/>
    </linearGradient>
    <filter id="blur" x="-20%" y="-20%" width="140%" height="140%">
      <feGaussianBlur stdDeviation="30"/>
    </filter>
  </defs>

  <rect width="800" height="500" fill="url(#bg)"/>
  <circle cx="730" cy="120" r="140" fill="#d946ef" opacity="0.14" filter="url(#blur)"/>
  <circle cx="120" cy="420" r="130" fill="#6366f1" opacity="0.12" filter="url(#blur)"/>

  <text x="42" y="58" fill="#f5d0fe" font-family="ui-sans-serif,system-ui,sans-serif" font-size="30" font-weight="700">CssHub</text>
  <text x="42" y="86" fill="#c4b5fd" font-family="ui-monospace,monospace" font-size="13">Chrome extension workflow: CSSBattle -> Popup -> GitHub</text>

  <rect x="36" y="112" width="228" height="332" rx="18" fill="url(#panel)" stroke="#3f3f46"/>
  <rect x="52" y="132" width="196" height="24" rx="8" fill="#0f172a" stroke="#334155"/>
  <circle cx="67" cy="144" r="4" fill="#22c55e"/>
  <text x="80" y="148" fill="#93c5fd" font-family="ui-monospace,monospace" font-size="10">cssbattle.dev/play/...</text>
  <rect x="52" y="170" width="196" height="104" rx="10" fill="#111827" stroke="#374151"/>
  <rect x="60" y="178" width="82" height="88" rx="8" fill="#2563eb" opacity="0.9"/>
  <rect x="148" y="178" width="92" height="40" rx="7" fill="#0b1220"/>
  <rect x="156" y="186" width="52" height="6" rx="3" fill="#9ca3af"/>
  <rect x="156" y="198" width="74" height="6" rx="3" fill="#4b5563"/>
  <rect x="148" y="226" width="92" height="40" rx="7" fill="#0b1220"/>
  <rect x="156" y="234" width="60" height="6" rx="3" fill="#9ca3af"/>
  <rect x="156" y="246" width="76" height="6" rx="3" fill="#4b5563"/>
  <rect x="52" y="286" width="196" height="18" rx="7" fill="#3b0764"/>
  <text x="62" y="299" fill="#f0abfc" font-family="ui-monospace,monospace" font-size="10">Challenge #32 solved</text>
  <rect x="52" y="314" width="196" height="112" rx="10" fill="#111827" stroke="#374151"/>
  <rect x="62" y="324" width="176" height="10" rx="5" fill="#4b5563"/>
  <rect x="62" y="340" width="152" height="8" rx="4" fill="#374151"/>
  <rect x="62" y="356" width="166" height="8" rx="4" fill="#374151"/>
  <rect x="62" y="372" width="140" height="8" rx="4" fill="#374151"/>
  <text x="52" y="416" fill="#93c5fd" font-family="ui-monospace,monospace" font-size="11">CSSBattle page</text>

  <rect x="286" y="150" width="228" height="294" rx="18" fill="url(#panel)" stroke="#3f3f46"/>
  <rect x="302" y="170" width="196" height="24" rx="8" fill="#1f2937" stroke="#374151"/>
  <text x="314" y="186" fill="#f5d0fe" font-family="ui-monospace,monospace" font-size="11">CssHub extension popup</text>
  <rect x="302" y="206" width="196" height="72" rx="10" fill="#0a0a0f" stroke="#27272a"/>
  <rect x="314" y="218" width="76" height="10" rx="5" fill="url(#accent)"/>
  <rect x="314" y="236" width="110" height="7" rx="3.5" fill="#71717a"/>
  <rect x="314" y="248" width="98" height="7" rx="3.5" fill="#52525b"/>
  <rect x="436" y="218" width="50" height="50" rx="10" fill="#1e1b4b" stroke="#8b5cf6"/>
  <text x="448" y="248" fill="#ddd6fe" font-family="ui-monospace,monospace" font-size="17">GH</text>
  <rect x="302" y="290" width="94" height="34" rx="10" fill="#22c55e"/>
  <text x="323" y="312" fill="#052e16" font-family="ui-monospace,monospace" font-size="12" font-weight="700">Connect</text>
  <rect x="404" y="290" width="94" height="34" rx="10" fill="#e879f9"/>
  <text x="426" y="312" fill="#3b0764" font-family="ui-monospace,monospace" font-size="12" font-weight="700">Sync</text>
  <rect x="302" y="336" width="196" height="90" rx="10" fill="#0a0a0f" stroke="#27272a"/>
  <rect x="314" y="349" width="70" height="7" rx="3.5" fill="#a1a1aa"/>
  <rect x="314" y="363" width="172" height="6" rx="3" fill="#52525b"/>
  <rect x="314" y="376" width="164" height="6" rx="3" fill="#52525b"/>
  <rect x="314" y="389" width="154" height="6" rx="3" fill="#52525b"/>
  <text x="302" y="436" fill="#e9d5ff" font-family="ui-monospace,monospace" font-size="11">Extension controls</text>

  <rect x="536" y="112" width="228" height="332" rx="18" fill="url(#panel)" stroke="#3f3f46"/>
  <rect x="552" y="132" width="196" height="24" rx="8" fill="#111827" stroke="#334155"/>
  <text x="565" y="148" fill="#86efac" font-family="ui-monospace,monospace" font-size="10">github.com/MarcoAntolini/cssbattle-solutions</text>
  <rect x="552" y="170" width="196" height="56" rx="10" fill="#052e16" stroke="#166534"/>
  <text x="565" y="194" fill="#bbf7d0" font-family="ui-monospace,monospace" font-size="11">feat: sync challenge 32</text>
  <text x="565" y="210" fill="#86efac" font-family="ui-monospace,monospace" font-size="10">+ solution.css + preview.png</text>
  <rect x="552" y="238" width="196" height="188" rx="10" fill="#0a0a0f" stroke="#27272a"/>
  <rect x="564" y="252" width="56" height="8" rx="4" fill="#a1a1aa"/>
  <rect x="628" y="252" width="22" height="8" rx="4" fill="#22c55e"/>
  <rect x="564" y="267" width="170" height="6" rx="3" fill="#52525b"/>
  <rect x="564" y="280" width="160" height="6" rx="3" fill="#52525b"/>
  <rect x="564" y="293" width="172" height="6" rx="3" fill="#52525b"/>
  <rect x="564" y="314" width="182" height="102" rx="8" fill="#111827" stroke="#374151"/>
  <rect x="575" y="326" width="68" height="7" rx="3.5" fill="#f59e0b"/>
  <rect x="575" y="340" width="156" height="6" rx="3" fill="#6b7280"/>
  <rect x="575" y="353" width="146" height="6" rx="3" fill="#6b7280"/>
  <rect x="575" y="366" width="152" height="6" rx="3" fill="#6b7280"/>
  <text x="552" y="436" fill="#86efac" font-family="ui-monospace,monospace" font-size="11">GitHub commit trail</text>

  <path d="M266 272 L280 272" stroke="url(#accent)" stroke-width="3" stroke-linecap="round"/>
  <path d="M280 272 L274 266 M280 272 L274 278" stroke="url(#accent)" stroke-width="3" stroke-linecap="round" fill="none"/>
  <path d="M518 272 L532 272" stroke="url(#accent)" stroke-width="3" stroke-linecap="round"/>
  <path d="M532 272 L526 266 M532 272 L526 278" stroke="url(#accent)" stroke-width="3" stroke-linecap="round" fill="none"/>
</svg>
